<svg xmlns="http://www.w3.org/2000/svg" xmlns:xlink="http://www.w3.org/1999/xlink" viewBox="923 603 20 20"><defs><style>.a{fill:url(#a);}.b{fill:#fff;}</style><linearGradient id="a" x1="0.5" x2="0.5" y2="1" gradientUnits="objectBoundingBox"><stop offset="0" stop-color="#5d56e1"/><stop offset="1" stop-color="#0395f2"/></linearGradient></defs><g transform="translate(823 376)"><circle class="a" cx="10" cy="10" r="10" transform="translate(100 227)"/><g transform="translate(105 232)"><path class="b" d="M5.392,0a5.392,5.392,0,1,0,5.392,5.392A5.4,5.4,0,0,0,5.392,0Zm4.718,5.393a7.765,7.765,0,0,0-3.438-.168c-.144-.332-.292-.652-.442-.957A7.06,7.06,0,0,0,9,2.357a4.7,4.7,0,0,1,1.11,3.035ZM8.531,1.879A6.38,6.38,0,0,1,5.919,3.656,23.418,23.418,0,0,0,4.173.84,4.66,4.66,0,0,1,8.531,1.879ZM3.5,1.071A22.951,22.951,0,0,1,5.268,3.885a14.875,14.875,0,0,1-4.5.587A4.732,4.732,0,0,1,3.5,1.071ZM.674,5.392c0-.083.009-.164.012-.247.126,0,.282.008.465.008A14.872,14.872,0,0,0,5.584,4.5q.211.426.417.889A7.566,7.566,0,0,0,1.925,8.581,4.694,4.694,0,0,1,.674,5.392ZM2.42,9.052A6.643,6.643,0,0,1,6.259,6,17.517,17.517,0,0,1,7.329,9.69,4.691,4.691,0,0,1,2.42,9.052Zm5.536.3a18.35,18.35,0,0,0-1.021-3.5,7.355,7.355,0,0,1,3.121.225A4.72,4.72,0,0,1,7.955,9.348Z"/></g></g></svg>