<svg xmlns="http://www.w3.org/2000/svg" xmlns:xlink="http://www.w3.org/1999/xlink" viewBox="918 979 66 66"><defs><style>.a{opacity:0.752;}.b{fill:url(#a);}.c{fill:#fff;}</style><linearGradient id="a" x1="0.5" x2="0.5" y2="1" gradientUnits="objectBoundingBox"><stop offset="0" stop-color="#5d56e1"/><stop offset="1" stop-color="#0395f2"/></linearGradient></defs><g class="a" transform="translate(818 752)"><circle class="b" cx="33" cy="33" r="33" transform="translate(100 227)"/><g transform="translate(116.563 243.563)"><g transform="translate(0)"><path class="c" d="M187.733,259.835a.548.548,0,0,0,.548.548h2.192a.548.548,0,0,0,.548-.548v-3.288a.548.548,0,0,0-.548-.548h-2.192a.548.548,0,0,0-.548.548v3.288Zm1.1-2.74h1.1v2.192h-1.1Z" transform="translate(-175.679 -239.563)"/><path class="c" d="M188.282,157.984h2.192a.548.548,0,0,0,.548-.548v-3.287a.548.548,0,0,0-.548-.548h-2.192a.548.548,0,0,0-.548.548v3.287A.548.548,0,0,0,188.282,157.984Zm.548-3.287h1.1v2.192h-1.1Z" transform="translate(-175.68 -143.738)"/><path class="c" d="M120.3,10.332l7.937-4.762,7.937,4.762a.548.548,0,0,0,.564-.939l-7.953-4.772V1.1h2.74v1.1h-1.644a.548.548,0,0,0,0,1.1h2.192a.548.548,0,0,0,.548-.548V.548A.548.548,0,0,0,132.068,0h-3.835a.548.548,0,0,0-.548.548V4.621l-7.953,4.772a.548.548,0,0,0,.564.939Z" transform="translate(-111.795)"/><path class="c" d="M53.94,260.384a.548.548,0,0,0,.548-.548v-3.287A.548.548,0,0,0,53.94,256H51.748a.548.548,0,0,0-.548.548v1.1a.548.548,0,1,0,1.1,0V257.1h1.1v2.74A.548.548,0,0,0,53.94,260.384Z" transform="translate(-47.913 -239.563)"/><path class="c" d="M137.63,195.637v-15.89a.548.548,0,1,0-1.1,0v15.89a.548.548,0,1,0,1.1,0Z" transform="translate(-127.767 -167.694)"/><path class="c" d="M102.948,366.073h18.629a.548.548,0,1,0,0-1.1h-4.931V359.5h.548a.548.548,0,1,0,0-1.1h-9.862a.548.548,0,1,0,0,1.1h.548v5.479h-4.931a.548.548,0,0,0,0,1.1Zm9.862-3.287a.548.548,0,0,0,0-1.1V359.5h2.74v5.479h-2.74Zm-3.835-3.288h2.74v2.192a.548.548,0,0,0,0,1.1v2.192h-2.74Z" transform="translate(-95.825 -335.389)"/><path class="c" d="M412.341,366.933h-2.192a.548.548,0,0,0-.548.548v3.287a.548.548,0,0,0,.548.548h2.192a.548.548,0,0,0,.548-.548v-3.287A.548.548,0,0,0,412.341,366.933Zm-.548,3.288h-1.1v-2.192h1.1Z" transform="translate(-383.301 -343.373)"/><path class="c" d="M412.341,264.533h-2.192a.548.548,0,0,0-.548.548v3.287a.548.548,0,0,0,.548.548h2.192a.548.548,0,0,0,.548-.548v-3.287A.548.548,0,0,0,412.341,264.533Zm-.548,3.287h-1.1v-2.192h1.1Z" transform="translate(-383.301 -247.548)"/><path class="c" d="M91.827,494.933H68.815a.548.548,0,0,0,0,1.1H91.827a.548.548,0,0,0,0-1.1Z" transform="translate(-63.884 -463.154)"/><path class="c" d="M399.657,187.733a.548.548,0,0,0-.548.548v.548h-6.027a.548.548,0,1,0,0,1.1h6.027v18.081a.548.548,0,1,0,1.1,0V188.281A.548.548,0,0,0,399.657,187.733Z" transform="translate(-367.33 -175.679)"/><path class="c" d="M273.067,259.835a.548.548,0,0,0,.548.548h2.192a.548.548,0,0,0,.548-.548v-3.288a.548.548,0,0,0-.548-.548h-2.192a.548.548,0,0,0-.548.548v3.288Zm1.1-2.74h1.1v2.192h-1.1Z" transform="translate(-255.534 -239.563)"/><path class="c" d="M5.479,314.323c0-.071-.031-7.123-2.74-7.123S0,314.252,0,314.323a2.744,2.744,0,0,0,2.192,2.684V319.8a.548.548,0,1,0,1.1,0v-2.795A2.744,2.744,0,0,0,5.479,314.323Zm-2.74,1.644A1.646,1.646,0,0,1,1.1,314.323c0-2.73.733-6.027,1.644-6.027s1.644,3.3,1.644,6.027A1.646,1.646,0,0,1,2.74,315.967Z" transform="translate(0 -287.475)"/><path class="c" d="M359.5,187.652V171.215a.548.548,0,1,0-1.1,0v16.437a.548.548,0,1,0,1.1,0Z" transform="translate(-335.388 -159.709)"/><path class="c" d="M273.615,157.984h2.192a.548.548,0,0,0,.548-.548v-3.287a.548.548,0,0,0-.548-.548h-2.192a.548.548,0,0,0-.548.548v3.287A.548.548,0,0,0,273.615,157.984Zm.548-3.287h1.1v2.192h-1.1Z" transform="translate(-255.534 -143.738)"/><path class="c" d="M.548,194.858a.548.548,0,0,0,.548-.548v-4.383H7.123a.548.548,0,0,0,0-1.1H1.1v-.548a.548.548,0,0,0-1.1,0v6.027A.548.548,0,0,0,.548,194.858Z" transform="translate(0 -175.681)"/></g></g></g></svg>