<svg xmlns="http://www.w3.org/2000/svg" xmlns:xlink="http://www.w3.org/1999/xlink" viewBox="923 510 20 20"><defs><style>.a{opacity:0.847;}.b{fill:url(#a);}.c{fill:#fff;}</style><linearGradient id="a" x1="0.5" x2="0.5" y2="1" gradientUnits="objectBoundingBox"><stop offset="0" stop-color="#5d56e1"/><stop offset="1" stop-color="#0395f2"/></linearGradient></defs><g class="a" transform="translate(823 283)"><circle class="b" cx="10" cy="10" r="10" transform="translate(100 227)"/><g transform="translate(104.748 178.194)"><g transform="translate(0 54.82)"><path class="c" d="M.972,57.274q.192.136,1.159.806t1.481,1.032l.24.172q.184.133.305.215t.294.184a1.706,1.706,0,0,0,.325.152.9.9,0,0,0,.283.051h.011a.9.9,0,0,0,.283-.051,1.708,1.708,0,0,0,.325-.152q.172-.1.294-.184t.305-.215l.24-.172,2.646-1.837a2.686,2.686,0,0,0,.69-.7,1.493,1.493,0,0,0,.277-.854.912.912,0,0,0-.9-.9H.9a.807.807,0,0,0-.67.294A1.141,1.141,0,0,0,0,55.849a1.321,1.321,0,0,0,.311.772A2.806,2.806,0,0,0,.972,57.274Z" transform="translate(0 -54.82)"/><path class="c" d="M9.566,184.929q-1.854,1.255-2.815,1.951-.322.237-.523.37a3.226,3.226,0,0,1-.534.271,1.627,1.627,0,0,1-.622.139H5.06a1.627,1.627,0,0,1-.622-.139,3.228,3.228,0,0,1-.534-.271q-.2-.133-.523-.37-.763-.56-2.81-1.951A3,3,0,0,1,0,184.437v4.489a.871.871,0,0,0,.266.639.871.871,0,0,0,.639.266H9.227a.907.907,0,0,0,.9-.9v-4.489A3.119,3.119,0,0,1,9.566,184.929Z" transform="translate(0 -181.87)"/></g></g></g></svg>