<svg xmlns="http://www.w3.org/2000/svg" xmlns:xlink="http://www.w3.org/1999/xlink" viewBox="923 542 20 20"><defs><style>.a{opacity:0.847;}.b{fill:url(#a);}.c{fill:#fff;}</style><linearGradient id="a" x1="0.5" x2="0.5" y2="1" gradientUnits="objectBoundingBox"><stop offset="0" stop-color="#5d56e1"/><stop offset="1" stop-color="#0395f2"/></linearGradient></defs><g class="a" transform="translate(823 315)"><circle class="b" cx="10" cy="10" r="10" transform="translate(100 227)"/><g transform="translate(105.401 226.791)"><path class="c" d="M9.091,7.792A4.851,4.851,0,0,0,7.318,6.018a4.766,4.766,0,0,0-2.446-.653,4.766,4.766,0,0,0-2.446.653A4.851,4.851,0,0,0,.653,7.792,4.89,4.89,0,0,0,.929,13.1a4.772,4.772,0,0,0,2.4,1.76.284.284,0,0,0,.254-.044.248.248,0,0,0,.082-.19q0-.019,0-.343t0-.565l-.146.025a1.862,1.862,0,0,1-.352.022,2.683,2.683,0,0,1-.441-.044.985.985,0,0,1-.425-.19.8.8,0,0,1-.279-.39L1.954,13a1.585,1.585,0,0,0-.2-.324.766.766,0,0,0-.276-.241L1.434,12.4a.466.466,0,0,1-.082-.076.348.348,0,0,1-.057-.089q-.019-.044.032-.073a.411.411,0,0,1,.184-.028l.127.019a.926.926,0,0,1,.314.152,1.024,1.024,0,0,1,.308.33,1.118,1.118,0,0,0,.352.4.747.747,0,0,0,.416.136,1.8,1.8,0,0,0,.362-.032,1.262,1.262,0,0,0,.285-.1,1.028,1.028,0,0,1,.311-.654,4.344,4.344,0,0,1-.65-.114,2.589,2.589,0,0,1-.6-.248,1.708,1.708,0,0,1-.511-.425,2.043,2.043,0,0,1-.333-.666,3.168,3.168,0,0,1-.13-.952,1.85,1.85,0,0,1,.5-1.307,1.705,1.705,0,0,1,.044-1.294.889.889,0,0,1,.546.086,3.814,3.814,0,0,1,.53.244q.168.1.27.171a4.582,4.582,0,0,1,2.436,0l.241-.152a3.414,3.414,0,0,1,.584-.279.831.831,0,0,1,.514-.07A1.689,1.689,0,0,1,7.48,8.676a1.851,1.851,0,0,1,.5,1.307,3.2,3.2,0,0,1-.13.955,1.963,1.963,0,0,1-.336.666A1.774,1.774,0,0,1,7,12.026a2.594,2.594,0,0,1-.6.247,4.339,4.339,0,0,1-.65.114,1.13,1.13,0,0,1,.33.9v1.338a.253.253,0,0,0,.079.19.276.276,0,0,0,.251.044,4.771,4.771,0,0,0,2.4-1.76,4.889,4.889,0,0,0,.276-5.31Z"/></g></g></svg>