<svg xmlns="http://www.w3.org/2000/svg" xmlns:xlink="http://www.w3.org/1999/xlink" viewBox="908 775 66 66"><defs><style>.a{opacity:0.847;}.b{fill:url(#a);}.c{fill:#fff;}</style><linearGradient id="a" x1="0.5" x2="0.5" y2="1" gradientUnits="objectBoundingBox"><stop offset="0" stop-color="#5d56e1"/><stop offset="1" stop-color="#0395f2"/></linearGradient></defs><g class="a" transform="translate(808 548)"><circle class="b" cx="33" cy="33" r="33" transform="translate(100 227)"/><g transform="translate(118.824 240.398)"><path class="c" d="M5.48,13.174a1.213,1.213,0,0,0,1.129-.807h0C6.125,12.69,5.48,12.045,5,11.4a.887.887,0,0,0-.484.807C4.351,12.69,4.834,13.174,5.48,13.174Z" transform="translate(2.751 6.989)"/><path class="c" d="M5.3,11.3c.161.161.323.323.484.323-.161-.161-.323-.323-.484-.323Z" transform="translate(3.253 6.928)"/><path class="c" d="M8.148,9.745V9.423L7.825,9.1c-.161,0,0,.161.161.323C7.987,9.745,7.987,9.907,8.148,9.745Z" transform="translate(4.76 5.579)"/><path class="c" d="M6.284,9.323C6.123,9.323,5.8,9.161,5.8,9v.323h.484Z" transform="translate(3.56 5.518)"/><path class="c" d="M9,13.271a9.766,9.766,0,0,0,3.065,0A6.209,6.209,0,0,0,9,13.271Z" transform="translate(5.522 8.022)"/><path class="c" d="M7.065,12.99s-.161-.161,0-.161h0v-.161c-.161.484-.645.645-1.29.645a1.422,1.422,0,0,1-1.452-1.29V11.7A2.293,2.293,0,0,0,4,12.668a1.658,1.658,0,0,0,1.774,1.613,1.942,1.942,0,0,0,1.613-1.129c-.161,0-.161-.161-.323-.161Zm-2.9-.323h0a.223.223,0,0,1,0,.323v-.323Zm0,.484c0-.161.161-.161,0,0,.161-.161.161-.161.161,0Zm.484.323H4.484v-.161h.161Zm.161.161H4.645v-.161h.161Zm.161.161v-.161h.161V13.8C5.129,13.958,4.968,13.958,4.968,13.8Zm.323.161s-.161-.161,0-.161c0,0,.161-.161.161,0,0,0,.161.161,0,.161Zm.323,0h0V13.8c.161,0,.161,0,0,.161C5.774,13.958,5.774,14.12,5.613,13.958Zm.323,0h0a.223.223,0,0,1,0-.323c.161.161.161.161,0,.323Zm.323,0h0c-.161-.161-.161-.161,0-.161,0-.161.161-.161,0,.161C6.42,13.8,6.42,13.958,6.258,13.958Zm.323-.161H6.42v-.161h.161C6.742,13.636,6.742,13.636,6.581,13.8Zm.323-.323H6.742v-.161H6.9Zm0-.323V12.99h.161v.161C7.065,13.313,6.9,13.313,6.9,13.152Z" transform="translate(2.456 7.173)"/><path class="c" d="M5.135,13.07a1.223,1.223,0,0,1,.645.323C5.942,11.3,7.071,10,8.845,8.876,9.813,8.23,10.62,7.746,11.587,7.1a12.031,12.031,0,0,1,1.936-1.129,1.223,1.223,0,0,1,.645.323c.484.323.807.484,1.29.807A26.273,26.273,0,0,0,18.2,8.876a9.358,9.358,0,0,1,1.936,1.613,4.968,4.968,0,0,1,.807,1.936c.968-2.42-.161-5.323-1.774-7.259A8.378,8.378,0,0,0,16.1,2.423a7.535,7.535,0,0,0-1.613-.807,1.738,1.738,0,0,0-1.29.323c-.484.323-.968,0-1.452-.161s-1.129.161-1.613.323A11.364,11.364,0,0,0,7.071,4.682C5.3,6.94,4.167,9.843,5.135,12.747Z" transform="translate(2.934 0.964)"/><path class="c" d="M12.325,9.2c-.161,0,0,.161.161.323s.161.323.323.323.161-.323,0-.484C12.648,9.361,12.487,9.2,12.325,9.2Z" transform="translate(7.519 5.64)"/><path class="c" d="M18.5,17.382a.563.563,0,0,0,.161-.323,5.73,5.73,0,0,0,.645-1.452c.161-.323.323-.323.645-.323.161,0,.161-.161.323-.161A6.094,6.094,0,0,0,21.4,13.349a3.416,3.416,0,0,0,.484-1.129c0-.323-.161-.484-.323-.484H21.4a.158.158,0,0,0-.161.161.223.223,0,0,1-.323,0,.347.347,0,0,1-.323-.323A4.258,4.258,0,0,0,19.466,8.51a16.362,16.362,0,0,0-2.1-1.452c-.807-.484-1.613-1.129-2.42-1.613-.323-.161-.645-.484-.968-.645H13.82c-1.452.807-2.742,1.613-4.033,2.42a18.258,18.258,0,0,0-2.1,1.613l-.161.161a1.763,1.763,0,0,1,1.613-.323,24.367,24.367,0,0,1,2.9,1.452c.484.161,0,.807-.323.645-.807-.484-1.452-.807-2.1-1.129a1.88,1.88,0,0,0-2.581.807c-.161,0-.161.161-.323.161v.161c0,.161-.161.484-.161.645.161.161.484.323.645.484h.161c-.161-.161-.323-.323-.323-.484a.158.158,0,0,1,.161-.161c0,.161.323.323.484.484.323-.161.484-.484.807-.484a3.3,3.3,0,0,1,1.774,0,3.672,3.672,0,0,1,1.452,1.29.184.184,0,1,1-.323.161,4.277,4.277,0,0,0-.968-.807v.161a1.041,1.041,0,0,1-.968.968c-.484-.161-.968-.484-.968-.968v-.323c-.645.323-1.29.807-2.1.484h0c.161.484-.645.645-.807.161-.161-.161-.807-.968-.968-.323a2.278,2.278,0,0,0,.161,1.452,9.578,9.578,0,0,1,.645,1.29c0,.161.161.323.161.484h0c0-.161,0-.161.161-.161h0c.161,0,.323.161.484.161.161-.161.484,0,.645.323a13.078,13.078,0,0,0,2.742,4.517h0l.323.323A4.584,4.584,0,0,0,13.013,21.9,6.893,6.893,0,0,0,16.4,20.124a31.011,31.011,0,0,0,2.1-2.742Zm1.29-5.323c.323-.161.484.323.161.323-.807.323-1.452-.161-2.1-.484v.323a.808.808,0,0,1-.968.807,1.041,1.041,0,0,1-.968-.968V11.9c-.323.161-.645.645-.968.968-.161.161-.484,0-.323-.161a2.846,2.846,0,0,1,1.452-1.29,3.3,3.3,0,0,1,1.774,0,3.526,3.526,0,0,0,.807.484c.161,0,.323-.161.484-.323,0-.161.161,0,.161.161-.161.161-.161.323-.484.323h.161a3.526,3.526,0,0,0,.807-.484c0-.161.161,0,.161.161-.161.161-.323.484-.645.484A.593.593,0,0,1,19.788,12.059ZM14.3,10.284a7.971,7.971,0,0,1,2.9-1.29,2.724,2.724,0,0,1,2.742,1.29c.323.323-.323.807-.645.323A1.88,1.88,0,0,0,16.723,9.8a12.031,12.031,0,0,0-1.936,1.129C14.3,11.091,13.981,10.446,14.3,10.284Zm-1.129-.807a.428.428,0,0,1,.484.484.428.428,0,0,1-.484.484c-.323.161-.645-.161-.645-.484A.72.72,0,0,1,13.175,9.478Zm0,2.258V15.93c0,.161-.161.161-.161,0V11.736C13.013,11.575,13.175,11.575,13.175,11.736ZM9.626,13.349a3.552,3.552,0,0,1-1.29-.161c-.323-.161-.645-.484-1.129-.323-.161,0-.161-.161,0-.161.645-.161,1.129.323,1.613.484a3.225,3.225,0,0,0,2.1-.323.158.158,0,0,1,.161.161A4.71,4.71,0,0,1,9.626,13.349Zm6.452,4.678a.563.563,0,0,0-.323.161h-.323c-.323,1.29-1.774.968-1.774.968-1.936.323-2.258-.968-2.258-.968a3.145,3.145,0,0,1-1.29-.161c-.161,0,0-.161.161-.161.323.161.484.161.807.323,1.613-1.129,2.1-.645,2.1-.645.807-.323,1.774.323,2.258.645.161-.161.323-.161.645-.161Zm.484-4.517a1.464,1.464,0,0,1-1.129-.484c-.161,0,0-.323.161-.161a2.029,2.029,0,0,0,2.1.323c.484-.161.968-.645,1.613-.484.161,0,0,.161,0,.161-.484-.161-.807.323-1.29.484A2.278,2.278,0,0,1,16.562,13.511Z" transform="translate(2.799 2.943)"/><path class="c" d="M15.252,13.352a1.991,1.991,0,0,1-1.29-.645v.161h0v.161h0a.563.563,0,0,1-.161.323,1.754,1.754,0,0,0,3.387-.484,1.729,1.729,0,0,0-.323-.968v.323A1.817,1.817,0,0,1,15.252,13.352Zm-1.29-.161v-.161h.161v.161C14.123,13.352,13.961,13.352,13.961,13.19Zm.161.323v-.161h.161v.161Zm.323.323s-.161-.161,0-.161c0,0,.161-.161.161,0,0,0,.161.161,0,.161Zm.323.161c-.161,0-.161-.161,0,0v-.161c0-.161.161,0,0,.161Zm.323,0h0a.223.223,0,0,1,0-.323V14Zm.323,0c-.161.161-.161,0,0,0-.161-.161-.161-.161,0-.161V14Zm.323,0h-.161v-.161h.161C15.9,13.836,15.736,14,15.736,14Zm.323-.161H15.9v-.161h.161C16.22,13.836,16.058,13.836,16.058,13.836Zm.807-1.129h0a.223.223,0,0,1,0,.323c-.161-.161-.161-.161,0-.323Zm-.161.323h0v.161c-.161,0-.161,0,0-.161Zm-.161.323s.161.161,0,.161c0,0-.161.161-.161,0,0,0-.161-.161,0-.161C16.381,13.19,16.542,13.19,16.542,13.352Zm-.161.323H16.22v-.161h.161Z" transform="translate(8.464 7.296)"/><path class="c" d="M14.1,12.468h0a1.166,1.166,0,0,0,2.258-.161.887.887,0,0,0-.484-.807C15.068,12.145,14.584,12.79,14.1,12.468Z" transform="translate(8.648 7.05)"/><path class="c" d="M24.684,32.907A11.746,11.746,0,0,0,26.3,29.2a1.82,1.82,0,0,0-.484-1.774,1.61,1.61,0,0,0-.807-.645,6.778,6.778,0,0,0,1.936-4.194V21.454a3.039,3.039,0,0,0,.323-1.29,3.283,3.283,0,0,0-.968-2.42,1.223,1.223,0,0,0,.323-.645,3.766,3.766,0,0,0,0-3.226A10.207,10.207,0,0,0,24.2,4.678,14.557,14.557,0,0,0,20.167.968,10.312,10.312,0,0,0,17.586,0h-.323a4.009,4.009,0,0,0-1.29.161A6.051,6.051,0,0,0,14.36,0,6.332,6.332,0,0,0,12.1.484,9.355,9.355,0,0,0,7.908,3.871c-2.1,2.42-3.71,6.291-2.742,10a2.771,2.771,0,0,0,0,2.742h0a2.725,2.725,0,0,0,.323.807,3.854,3.854,0,0,0-.807,2.258h0c0,.161-.161.323-.161.484a1.454,1.454,0,0,0,.161.807h0A.838.838,0,0,0,5,21.615H5c.161.161.323.484.484.645h0a2.227,2.227,0,0,0,.645.484h0a1.223,1.223,0,0,0,.645.323h0a1.209,1.209,0,0,0,.807.161h.807a1.454,1.454,0,0,0,.807-.161h0c.161,0,.161,0,.323-.161L10,23.39v2.742L4.843,28.068c-3.226,1.774-5,4.517-4.839,7.9a1.454,1.454,0,0,0,.161.807A6.986,6.986,0,0,0,0,37.585a2.205,2.205,0,0,0,2.258,2.258,1.985,1.985,0,0,0,1.613-.807h0a2.293,2.293,0,0,0,.968.323A25.756,25.756,0,0,0,12.1,38.23c.807-.161,1.452-.484,2.1-.645v.807A2.227,2.227,0,0,0,16.3,40a2.991,2.991,0,0,0,1.129-.323A21.133,21.133,0,0,0,24.684,32.907Zm.323-9.517a4.559,4.559,0,0,1-2.1,2.742.541.541,0,1,1-.484-.968,3.423,3.423,0,0,0,1.613-2.1C24.2,22.422,25.168,22.744,25.007,23.39ZM2.262,38.23a.647.647,0,0,1,0-1.29A.647.647,0,0,1,2.262,38.23ZM16.3,37.1a17.625,17.625,0,0,0,6.13-5.807,7.535,7.535,0,0,0,.807-1.613,23.95,23.95,0,0,1-11.453,6.936,24.03,24.03,0,0,1-6.936.968.647.647,0,0,1,0-1.29,29.738,29.738,0,0,0,6.452-.968,20.664,20.664,0,0,0,5.484-2.258,9.68,9.68,0,0,1-5.162-1.129c-.645-.323,0-1.452.645-1.129a7.294,7.294,0,0,0,7.259.161,7.583,7.583,0,0,0,1.936-1.452h0a19.565,19.565,0,0,0-2.258-.807c-.323-.161-.484-.323-.484-.645V24.2a4.141,4.141,0,0,1-2.9,1.129,5.476,5.476,0,0,1-2.9-1.129v3.71c0,.323-.161.484-.484.645l-6.291,2.42a5.73,5.73,0,0,0-1.452.645,4.5,4.5,0,0,0-1.936,4.033.647.647,0,0,1-1.29,0,5.715,5.715,0,0,1,4.033-5.807c2.1-.807,4.194-1.452,6.13-2.258V23.228A7.271,7.271,0,0,1,10,20.97H9.844v.161h0v.161H9.682l-.161.161h.161v.161H9.36v.161c0,.161,0,.161-.161.161s-.161,0-.161-.161H8.876v.161c0,.161,0,.161-.161.161s-.161,0-.161-.161H8.392V22.1a.161.161,0,1,1-.323,0H7.908v.161c0,.161-.161.161-.161,0-.161,0-.161-.161,0-.161H7.585v.161s-.161.161-.161,0c0,0-.161-.161,0-.161H7.263v.161H7.1V22.1h0l-.161-.161H6.779v-.161h0v-.161h0c-.161,0-.161,0-.161-.161s0-.161.161-.161v-.161h0c-.161,0-.161,0-.161-.161a.158.158,0,0,1,.161-.161v-.323a2.1,2.1,0,0,1,1.29-1.936A20.791,20.791,0,0,1,7.1,16.615c-.807-1.129-.807-2.1-.161-2.42a.158.158,0,0,0-.161-.161C5.65,10.808,6.94,7.42,9.037,5a9.732,9.732,0,0,1,3.71-3.065,4.468,4.468,0,0,1,3.226-.161,2.278,2.278,0,0,1,1.452-.161,2.976,2.976,0,0,1,1.936.807,14.074,14.074,0,0,1,3.71,3.226c1.774,2.42,3.065,5.646,1.936,8.549a1.706,1.706,0,0,1,.323,2.258c-.323.645-.807,1.129-1.129,1.774a.593.593,0,0,1,.484.161,1.887,1.887,0,0,1,1.29,1.774v.323a.158.158,0,0,1,.161.161c0,.161,0,.161-.161.161h0v.161a.161.161,0,0,1,0,.323h0v.161h0c.161,0,.161.161,0,.161,0,.161-.161.161-.161,0h0l-.161.161h0s.161.161,0,.161c0,0-.161.161-.161,0v-.161h-.161v.161h-.161v-.161h-.161v.161h-.161v-.161h-.161c0,.161,0,.161-.161.161s-.161,0-.161-.161v-.161H24.2c0,.161,0,.161-.161.161s-.161,0-.161-.161v-.161h-.161a.161.161,0,1,1-.323,0v-.161h-.161c0,.161-.161.161-.161,0-.161,0-.161-.161,0-.161h.161l-.161-.161h0s-.161.161-.161,0c0,0-.161-.161,0-.161h0v-.161h-.161a2.227,2.227,0,0,1-.484.645c-.484.484-.807,1.129-1.29,1.613,0,.161.161.161.161.323v4.033l2.42.968c0-.161.161-.161.161-.323.323-.323.645-.161.968.161.161-.645,1.29-.323,1.129.323a8.315,8.315,0,0,1-1.452,3.226,19.552,19.552,0,0,1-6.452,6.13C16.135,38.553,15.489,37.585,16.3,37.1ZM10.489,30a.647.647,0,0,1,0,1.29A.647.647,0,0,1,10.489,30Zm10.646-3.065a.647.647,0,0,1,0-1.29A.647.647,0,0,1,21.135,26.938Z"/></g></g></svg>