<svg xmlns="http://www.w3.org/2000/svg" xmlns:xlink="http://www.w3.org/1999/xlink" viewBox="909 678 66 66"><defs><style>.a{opacity:0.847;}.b{fill:url(#a);}.c{fill:#fff;}.d{fill:#ebeced;}</style><linearGradient id="a" x1="0.5" x2="0.5" y2="1" gradientUnits="objectBoundingBox"><stop offset="0" stop-color="#5d56e1"/><stop offset="1" stop-color="#0395f2"/></linearGradient></defs><g class="a" transform="translate(809 451)"><circle class="b" cx="33" cy="33" r="33" transform="translate(100 227)"/><g transform="translate(115.274 240.752)"><path class="c" d="M10.22,25.432l-5.85,5.417a2.371,2.371,0,0,1-3.3-.108L.578,30.2a2.371,2.371,0,0,1,.108-3.3l5.85-5.417a2.371,2.371,0,0,1,3.3.108l.488.542A2.371,2.371,0,0,1,10.22,25.432Z" transform="translate(0 -9.56)"/><path class="d" d="M5.994,40.12.578,34.269a2.371,2.371,0,0,1,.108-3.3l.542-.488a2.371,2.371,0,0,1,3.3.108l5.417,5.85a2.371,2.371,0,0,1-.108,3.3l-.542.488A2.277,2.277,0,0,1,5.994,40.12Z" transform="translate(0 -13.685)"/><path class="c" d="M37.72,53.732l-5.85,5.417a2.371,2.371,0,0,1-3.3-.108l-.488-.542a2.371,2.371,0,0,1,.108-3.3l5.85-5.417a2.371,2.371,0,0,1,3.3.108l.488.542A2.277,2.277,0,0,1,37.72,53.732Z" transform="translate(-12.603 -22.53)"/><path class="d" d="M23.032,49.152,28.449,55a2.371,2.371,0,0,1-.108,3.3l-.542.488a2.371,2.371,0,0,1-3.3-.108l-5.417-5.85a2.371,2.371,0,0,1,.108-3.3l.542-.488A2.275,2.275,0,0,1,23.032,49.152Z" transform="translate(-8.479 -22.175)"/><path class="d" d="M22.335,9.478l5.85,5.417a2.277,2.277,0,0,1,.108,3.3l-.488.542a2.277,2.277,0,0,1-3.3.108l-5.85-5.417a2.277,2.277,0,0,1-.108-3.3l.488-.542A2.371,2.371,0,0,1,22.335,9.478Z" transform="translate(-8.215 -4.061)"/><path class="c" d="M37.615,12.535,32.2,18.385a2.277,2.277,0,0,1-3.3.108l-.542-.488a2.277,2.277,0,0,1-.108-3.3l5.417-5.85a2.277,2.277,0,0,1,3.3-.108l.542.488A2.373,2.373,0,0,1,37.615,12.535Z" transform="translate(-12.661 -3.705)"/><path class="c" d="M46.886,36.494l5.85-5.417a2.371,2.371,0,0,1,3.3.108l.488.542a2.371,2.371,0,0,1-.108,3.3l-5.85,5.417a2.371,2.371,0,0,1-3.3-.108l-.488-.542A2.373,2.373,0,0,1,46.886,36.494Z" transform="translate(-21.174 -13.96)"/><path class="d" d="M51.432,21.452l5.417,5.85a2.371,2.371,0,0,1-.108,3.3l-.542.488a2.371,2.371,0,0,1-3.3-.108l-5.417-5.85a2.371,2.371,0,0,1,.108-3.3l.542-.488A2.275,2.275,0,0,1,51.432,21.452Z" transform="translate(-21.494 -9.48)"/><circle class="c" cx="2.058" cy="2.058" r="2.058" transform="translate(9.732 17.28)"/><circle class="c" cx="2.058" cy="2.058" r="2.058" transform="translate(22.354 17.28)"/><circle class="c" cx="2.058" cy="2.058" r="2.058" transform="translate(16.287 22.751)"/><circle class="d" cx="2.058" cy="2.058" r="2.058" transform="translate(25.55 0)"/></g></g></svg>