<svg xmlns="http://www.w3.org/2000/svg" xmlns:xlink="http://www.w3.org/1999/xlink" viewBox="923 478 20 20"><defs><style>.a{opacity:0.847;}.b{fill:url(#a);}.c{fill:#fff;}</style><linearGradient id="a" x1="0.5" x2="0.5" y2="1" gradientUnits="objectBoundingBox"><stop offset="0" stop-color="#5d56e1"/><stop offset="1" stop-color="#0395f2"/></linearGradient></defs><g class="a" transform="translate(823 251)"><circle class="b" cx="10" cy="10" r="10" transform="translate(100 227)"/><g transform="translate(104.527 231.478)"><g transform="translate(0 0)"><path class="c" d="M10.838,8.74a.524.524,0,0,1-.161.459L9.151,10.714a.859.859,0,0,1-.27.2,1.115,1.115,0,0,1-.327.1l-.069.006q-.057.006-.149.006a5.292,5.292,0,0,1-.706-.075,5.361,5.361,0,0,1-1.194-.367,10.021,10.021,0,0,1-1.6-.878A11.939,11.939,0,0,1,2.929,8.1,12.578,12.578,0,0,1,1.6,6.582,10.8,10.8,0,0,1,.748,5.244,7.2,7.2,0,0,1,.266,4.131,5.907,5.907,0,0,1,.048,3.27,2.843,2.843,0,0,1,0,2.7q.011-.207.011-.23a1.116,1.116,0,0,1,.1-.327.86.86,0,0,1,.2-.27L1.839.349A.506.506,0,0,1,2.206.188.428.428,0,0,1,2.47.274a.8.8,0,0,1,.2.212l1.228,2.33a.559.559,0,0,1,.057.4.715.715,0,0,1-.2.367l-.562.562a.191.191,0,0,0-.04.075.283.283,0,0,0-.017.086,2.073,2.073,0,0,0,.207.551,5.058,5.058,0,0,0,.425.672,7.456,7.456,0,0,0,.815.913,7.6,7.6,0,0,0,.918.821,5.3,5.3,0,0,0,.672.43,1.785,1.785,0,0,0,.413.166l.143.029A.274.274,0,0,0,6.8,7.873a.192.192,0,0,0,.075-.04l.654-.666a.7.7,0,0,1,.482-.184.6.6,0,0,1,.31.069h.011l2.215,1.309A.577.577,0,0,1,10.838,8.74Z" transform="translate(0 -0.188)"/></g></g></g></svg>