<svg xmlns="http://www.w3.org/2000/svg" viewBox="115 66.731 145.345 281.047">
  <defs>
    <style>
      .cls-1, .cls-7 {
        fill: #0d7dc4;
      }

      .cls-1, .cls-17, .cls-2, .cls-4, .cls-6 {
        fill-rule: evenodd;
      }

      .cls-2, .cls-3 {
        fill: #6593d6;
      }

      .cls-4 {
        fill: #cca281;
      }

      .cls-5 {
        fill: #ba8663;
      }

      .cls-6 {
        fill: #0395f2;
      }

      .cls-8 {
        fill: #d6b896;
      }

      .cls-9 {
        fill: #c19774;
      }

      .cls-10 {
        fill: #282236;
      }

      .cls-11, .cls-17 {
        fill: #313142;
      }

      .cls-12 {
        fill: #2f273a;
      }

      .cls-13 {
        fill: #2b2537;
      }

      .cls-14, .cls-16 {
        fill: #fff;
      }

      .cls-15 {
        fill: #a08667;
      }

      .cls-16 {
        stroke: #282236;
        stroke-miterlimit: 10;
        stroke-width: 2px;
      }
    </style>
  </defs>
  <g id="Group_41" data-name="Group 41" transform="translate(115 66.739)">
    <path id="Path_72" data-name="Path 72" class="cls-1" d="M213.907,479.6H174l4.782,17.91,35.125,2.608Z" transform="translate(-98.359 -271.115)"/>
    <path id="Path_73" data-name="Path 73" class="cls-1" d="M51.5,481.1H91.407l-4.782,17.91L51.5,501.619Z" transform="translate(-29.112 -271.963)"/>
    <path id="Path_74" data-name="Path 74" class="cls-2" d="M200,498.5" transform="translate(-113.057 -281.799)"/>
    <path id="Path_75" data-name="Path 75" class="cls-3" d="M68.5,508.6" transform="translate(-38.722 -287.508)"/>
    <path id="Path_76" data-name="Path 76" class="cls-3" d="M47,520.1" transform="translate(-26.568 -294.009)"/>
    <path id="Path_77" data-name="Path 77" class="cls-4" d="M83.536,398.943s18.3,43.3-19.736,49.253c0,0,11.65,46.384,42.6,45.949h2.087c29.6,2.087,42.6-45.732,42.6-45.732-30.865-5.825-24.822-49.514-24.822-49.514H83.536Z" transform="translate(-36.065 -225.497)"/>
    <path id="Path_78" data-name="Path 78" class="cls-5" d="M73.264,468.234C93.3,465.1,98.3,451.5,97.3,437.369a30.249,30.249,0,0,1-9.868-2.869c1.652,13.042-.826,30.169-23.735,33.734,0,0,11.65,46.384,42.6,45.949h2.087a24.087,24.087,0,0,0,4.695-.087C84.219,511.836,73.264,468.234,73.264,468.234Z" transform="translate(-36.009 -245.621)"/>
    <path id="Path_79" data-name="Path 79" class="cls-1" d="M124.842,600.3v20.084L113.8,608.56Z" transform="translate(-64.329 -339.345)"/>
    <path id="Path_80" data-name="Path 80" class="cls-6" d="M29.2,499.923l38.168,51.818,9.651-18.823L38.894,481.1Z" transform="translate(-16.506 -271.963)"/>
    <g id="Group_37" data-name="Group 37" transform="translate(12.911 209.094)">
      <path id="Path_81" data-name="Path 81" class="cls-7" d="M41.307,483.608,39.351,481,29.7,499.823l38.125,51.818,1.348-2.608L32.96,499.823Z" transform="translate(-29.7 -481)"/>
    </g>
    <path id="Path_82" data-name="Path 82" class="cls-1" d="M178.1,598.8v20.127l11.042-11.868Z" transform="translate(-100.677 -338.497)"/>
    <path id="Path_83" data-name="Path 83" class="cls-6" d="M225.875,498.423l-38.125,51.818L178.1,531.418,216.225,479.6Z" transform="translate(-100.677 -271.115)"/>
    <g id="Group_38" data-name="Group 38" transform="translate(86.248 208.05)">
      <path id="Path_84" data-name="Path 84" class="cls-7" d="M237.611,497.423,227.961,478.6l-1.522,2.087L235,497.423l-36.6,49.731,1.087,2.087Z" transform="translate(-198.4 -478.6)"/>
    </g>
    <path id="Path_85" data-name="Path 85" class="cls-8" d="M28.869,278.9c-6.521-14.346-8.477-25.735-12.607-27.909s-9.129-21.953,3.912-9.912,8.347,15.954,8.347,15.954h0l2.956,2.956C31.477,260.034,35.39,293.246,28.869,278.9Z" transform="translate(-6.655 -134.102)"/>
    <path id="Path_86" data-name="Path 86" class="cls-8" d="M48.281,109.3l85.639-10,18.693,35.647-4.347,32.169-1.739,6.521s9.564-18.475,7.825-8.042-10.433,28.039-8.912,33.473-4.565,7.608-5.217,3.043c0,0-8.26,20.866-11.085,22.605s-16.084,23.909-29.343,23.909-27.17.435-33.69-10c-5.869-9.39-13.476-22.257-16.867-30.778-.391-.956-.7-1.869-.956-2.7-2.608-8.26-9.781-40.429-9.781-40.429s2.826-19.345,3.7-25.431S44.8,111.037,44.8,111.037Z" transform="translate(-21.763 -56.137)"/>
    <g id="Group_39" data-name="Group 39" transform="translate(29.179 54.493)">
      <path id="Path_87" data-name="Path 87" class="cls-9" d="M108.063,144.421c16.084,2.826,23.692-1.739,25-1.956s23.909,1.739,26.735,16.3a170.809,170.809,0,0,1,3.26,24.779c1.174-8.086,0-15.215,0-16.432,0-1.739-.435-10.868-3.26-25.431s-25.431-16.519-26.735-16.3-8.912,4.782-25,1.956S68.069,137.77,67.417,141.465c-.522,2.913-.217,13.346-.087,17.563a1.563,1.563,0,0,1,.087-.478C68.069,154.854,91.979,141.6,108.063,144.421Z" transform="translate(-67.123 -125.365)"/>
    </g>
    <path id="Path_88" data-name="Path 88" class="cls-10" d="M23.692,143.147,26.3,142.06s-4.782-13.476-4.347-23.257-.043-18.693-.043-18.693l7.434-10.216s-.652-15.65,0-19.345S53.9,53.6,69.989,56.421s23.692-1.739,25-1.956,23.909,1.739,26.735,16.3,3.26,23.692,3.26,25.431,2.391,15.432-3.043,26.735l.217,8.26h1.522l3.043-10.868s5.217-18.258,7.39-18.693-2.174-12.389-2.174-12.389.869-12.172,7.39-17.171,8.477-15.432,2.174-21.3-13.259-20.214-8.042-19.78c0,0-6.434-1.087-8.477,2.391,0,0,3.478-10.433,8.347-7.825,0,0-5.738-5.13-9.781-2.956,0,0,1.956-4.434,3.912-4.347a1.544,1.544,0,0,1,.435.087c2.087.869-4.869-2.608-7.042-1.739s-3.7-5.738-6.608-5.521S103.2,9.255,96.376,12.559c-6.825,3.347-7.521-7.694-7.521-7.694S71.467,6.168,69.163,3.43,53.513-3.222,48.6,4.6c0,0,12.3,2.608,6.825,10.129,0,0-18.388-16.823-25.779-5.3l2.608,4.13s-9.781,1.087-8.477,5.434c0,0,5.651,1.087,5.651,3.478S19,24.209,14.65,28.991s-3.782,8.955-6.39,13.085S0,51.422,0,51.422,10.868,67.507,10.216,74.9,7.608,88.156,8.477,91.633s-1.3,11.52,1.3,17.171,6.955,17.606,6.955,17.606Z" transform="translate(0 0)"/>
    <g id="Group_40" data-name="Group 40" transform="translate(6.825 63.203)">
      <path id="Path_89" data-name="Path 89" class="cls-11" d="M19.091,156.963c-.652,7.39-2.608,13.259-1.739,16.737s-1.3,11.52,1.3,17.171,6.955,17.606,6.955,17.606l6.955,16.737,2.608-1.087s-4.782-13.476-4.347-23.257-.043-18.693-.043-18.693l7.434-10.216s-.609-15.041-.043-19.084c-4.043-2.043-10.868-4.565-22.475-7.477C17.743,149.617,19.352,154.007,19.091,156.963Z" transform="translate(-15.7 -145.4)"/>
    </g>
    <path id="Path_90" data-name="Path 90" class="cls-12" d="M200,241.6s1.826-4.782,6.173-5.564c0,0-1.739.913-1.522,1.913,0,0,4-2.13,5.564-1.7a1.645,1.645,0,0,0-.956.869s6.086-1.913,7-1.087c0,0-3.478.869-3.869,1.435,0,0,8.3-.913,9.825-.522a14.211,14.211,0,0,0-3.7,1s6.434-1.217,9.868,1.087c0,0-3.7-.7-4.347-.348s5.782.043,7.825,3.739c0,0,1.174,1-4-.956-5.13-1.956-11.3-1.956-17.345-.869S200.087,243.986,200,241.6Z" transform="translate(-113.057 -133.312)"/>
    <ellipse id="Ellipse_11" data-name="Ellipse 11" class="cls-13" cx="5.912" cy="5.738" rx="5.912" ry="5.738" transform="translate(93.638 111.804)"/>
    <path id="Path_91" data-name="Path 91" class="cls-14" d="M225.547,269.517a2.218,2.218,0,0,1-2.174,2.217,2.19,2.19,0,0,1-2.174-2.217,2.218,2.218,0,0,1,2.174-2.217A2.189,2.189,0,0,1,225.547,269.517Z" transform="translate(-125.041 -151.105)"/>
    <path id="Path_92" data-name="Path 92" class="cls-12" d="M113.459,243s-1.826-4.782-6.216-5.564c0,0,1.739.913,1.521,1.913,0,0-4-2.13-5.564-1.7a1.645,1.645,0,0,1,.956.869s-6.086-1.913-7-1.087c0,0,3.478.869,3.869,1.435,0,0-8.3-.913-9.825-.522a14.211,14.211,0,0,1,3.7,1s-6.434-1.217-9.868,1.087c0,0,3.7-.7,4.347-.348s-5.782.043-7.825,3.739c0,0-1.174,1,4-.956s11.3-1.956,17.345-.869S113.416,245.386,113.459,243Z" transform="translate(-46.035 -134.104)"/>
    <ellipse id="Ellipse_12" data-name="Ellipse 12" class="cls-13" cx="5.912" cy="5.738" rx="5.912" ry="5.738" transform="translate(50.862 110.935)"/>
    <path id="Path_93" data-name="Path 93" class="cls-14" d="M128.3,267.617a2.174,2.174,0,1,0,2.174-2.217A2.218,2.218,0,0,0,128.3,267.617Z" transform="translate(-72.526 -150.031)"/>
    <path id="Path_94" data-name="Path 94" class="cls-15" d="M145.8,335.246s2.521-7.477,10.52,3.826a2.982,2.982,0,0,0,4.695,0c2.608-2.608,10.607-8.086,10.52-5.043s-2.478,1.782-4.869,2.217-3.3.739-4.26,2.043-4.608,3.565-7.521-.565C151.929,333.551,146.974,337.854,145.8,335.246Z" transform="translate(-82.418 -188.143)"/>
    <path id="Path_95" data-name="Path 95" class="cls-16" d="M143.2,378.987l27.952-1.087C171.152,377.943,160.067,385.029,143.2,378.987Z" transform="translate(-80.949 -213.626)"/>
    <path id="Path_96" data-name="Path 96" class="cls-17" d="M129.4,371.979s-1.652-6.825,18.867-4.869c0,0,24.6-3.3,16,4.869,0,0,14-12.172-14.215-10.651S129.4,371.979,129.4,371.979Z" transform="translate(-72.628 -204.184)"/>
    <path id="Path_97" data-name="Path 97" class="cls-17" d="M168.9,393.8h6.477l-1.869,7.347h-2.3Z" transform="translate(-95.477 -222.614)"/>
    <path id="Path_98" data-name="Path 98" class="cls-17" d="M94.878,397.755s6.043,14.3,20.388,13.433,27.17,7.173,36.907-12.563L159,387.8s-17.649,20.823-30.43,19.432c-14.259-1.565-24-2.782-37.168-15.172Z" transform="translate(-51.667 -219.222)"/>
  </g>
</svg>
