<svg xmlns="http://www.w3.org/2000/svg" viewBox="0 0 253.84 121.33">
<style>
.path{
  stroke-dasharray: 1080;
  animation: dash 2s infinite;
}
@keyframes dash {
  from {
    stroke-dashoffset: 1080;
  }
  to {
    stroke-dashoffset: 0;
  }
}
</style>
    <g id="Layer_1-2" data-name="Layer 1">
      <path class='path' d="M93.16,26.6s2.67-14.69-17.35-21S41.1,4.24,35.1,6.91s-31.7,11-20.69,21.36,65.07,32,67.4,48.38-13.27,30-29.32,36-33.74,11.68-45.76-4,4.68-35,11.35-37,30,1.66,48.38,17.35,44.05,15,40.38-8S91.69,49,85.15,70.64s-.67,30.7,3.34,25L100.7,82.93a4.88,4.88,0,0,1,6.57-.44c4,3.19,10.38,8,13.25,8.18,3.81.29,2-21.46-5.31-28.17a2.07,2.07,0,0,1,.63-3.47c7.93-3,24.42-7.75,19,6.61-7,18.69-6,36.7,4.67,26.69s9.35-21.69,4.34-28,10.29-8.36,10.29-8.36,12.22-1.65,4.91,8.18S153.69,94.91,164,87.84,188.44,71,187.12,59.56s-15-6.11-14.86,3.6-1.94,15.2,4.43,11.86c4-2.08,7.69-7.84,9.93-11.89a3.34,3.34,0,0,1,5.33-.7c3.37,3.43,8.56,7.49,11.1,3.24,3.75-6.25,18.93-22.28,26.6-60.78a1.84,1.84,0,0,1,3.53-.31c3,7.94,8.17,21.71,11.29,30.32,2.07,5.7,3.95,12,6.55,16.45a2.25,2.25,0,0,1-2.9,3.18c-11.42-5.38-32-12.1-35.77,6.73-5.32,26.35,26.81,3.46,26.81,3.46" style="fill: none;stroke: #0098F3;stroke-linecap: round;stroke-miterlimit: 10;stroke-width: 5px"/>
    </g>
</svg>
