<?xml version="1.0" encoding="iso-8859-1"?>
<!-- Generator: Adobe Illustrator 19.0.0, SVG Export Plug-In . SVG Version: 6.00 Build 0)  -->
<svg xmlns="http://www.w3.org/2000/svg" xmlns:xlink="http://www.w3.org/1999/xlink" version="1.1" id="Layer_1" x="0px" y="0px" viewBox="0 0 505.003 505.003" style="enable-background:new 0 0 505.003 505.003;" xml:space="preserve" width="512" height="512">
<g>
	<g>
		<path style="fill:#FFD0A6;" d="M497.5,275.971c0,30.517-23.502,55.526-53.386,57.917c-1.559,0.132-3.144,0.198-4.729,0.198    c-4.069,0-8.032-0.41-11.863-1.215H77.482c-3.831,0.806-7.795,1.215-11.864,1.215h-0.04C33.49,334.06,7.503,308.061,7.503,275.971    c0-30.253,23.119-55.103,52.659-57.838c1.797-0.185,3.62-0.264,5.456-0.264c2.444,0,4.835,0.145,7.2,0.436h359.366    c2.365-0.291,4.756-0.436,7.2-0.436c3.448,0,6.83,0.304,10.106,0.885C476.772,223.523,497.5,247.329,497.5,275.971z"/>
		<path style="fill:#E8B182;" d="M449.491,218.754v73.612c0,14.294-1.863,28.206-5.377,41.522c-1.559,0.132-3.144,0.198-4.729,0.198    c-4.069,0-8.032-0.41-11.863-1.215H77.482c-3.831,0.806-7.795,1.215-11.864,1.215h-0.04c-3.54-13.383-5.416-27.347-5.416-41.72    v-74.233c1.797-0.185,3.62-0.264,5.456-0.264c2.444,0,4.835,0.145,7.2,0.436h359.366c2.365-0.291,4.756-0.436,7.2-0.436    C442.833,217.869,446.215,218.173,449.491,218.754z"/>
		<path style="fill:#E8B182;" d="M432.182,192.12v120.775c0,86.426-61.828,158.413-143.67,174.148    c-10.899,2.1-22.168,3.197-33.688,3.197c-97.947,0-177.345-79.398-177.345-177.345V192.12    c0-97.946,79.398-177.358,177.345-177.358c11.52,0,22.789,1.097,33.688,3.197c35.472,6.817,67.178,24.203,91.724,48.749    C412.325,98.811,432.182,143.147,432.182,192.12z"/>
		<path style="fill:#FFD0A6;" d="M432.182,192.12v120.775c0,86.426-61.828,158.413-143.67,174.148    c-81.842-15.735-143.67-87.721-143.67-174.148V192.12c0-86.426,61.828-158.426,143.67-174.161    c35.472,6.817,67.178,24.203,91.724,48.749C412.325,98.811,432.182,143.147,432.182,192.12z"/>
		<path style="fill:#5B5B68;" d="M432.184,192.12v26.184c-209.963-0.264-279.757-86.136-279.757-86.136    c0,35.67-35.67,73.308-74.946,86.136V192.12c0-97.946,79.398-177.358,177.345-177.358c11.52,0,22.789,1.097,33.688,3.197    c35.472,6.817,67.178,24.203,91.724,48.749C412.328,98.811,432.184,143.147,432.184,192.12z"/>
		<path style="fill:#40404C;" d="M288.507,17.96C225.794,30.022,174.84,75.111,154.429,134.415c-1.361-1.44-2.008-2.246-2.008-2.246    c0,35.67-35.67,73.308-74.946,86.136V192.12c0-97.946,79.398-177.358,177.345-177.358    C266.339,14.763,277.608,15.859,288.507,17.96z"/>
		<path style="fill:#E4E4EF;" d="M200.083,362.322c-0.77,19.78-12.76,19.31-13.53,39.09c-0.77,19.78,11.23,20.24,10.46,40.02    c-0.7,17.95-10.63,19.22-13.05,34.08c-22.81-9.95-43.12-24.55-59.73-42.61l0.01-0.01c3.53-6.41,8.48-8.28,10.58-19.21    c2.8-14.56-5.06-16.08-2.26-30.64c2.81-14.56,10.66-13.05,13.46-27.61c2.8-14.56-5.05-16.07-2.25-30.63    c2.8-14.56,10.66-13.05,13.46-27.61v-3.03c5.35,3.5,11.75,5.54,18.62,5.54c11.05,0,20.86-5.26,27.08-13.4    c-1.83,16.7-12.57,17.31-13.3,36C188.863,342.081,200.853,342.541,200.083,362.322z"/>
		<path style="fill:#E4E4EF;" d="M304.817,362.322c0.77,19.78,12.76,19.31,13.53,39.09c0.77,19.78-11.23,20.24-10.46,40.02    c0.7,17.95,10.63,19.22,13.05,34.08c22.81-9.95,43.12-24.55,59.73-42.61l-0.01-0.01c-3.53-6.41-8.48-8.28-10.58-19.21    c-2.8-14.56,5.06-16.08,2.26-30.64c-2.81-14.56-10.66-13.05-13.46-27.61c-2.8-14.56,5.05-16.07,2.25-30.63    c-2.8-14.56-10.66-13.05-13.46-27.61v-3.03c-5.35,3.5-11.75,5.54-18.62,5.54c-11.05,0-20.86-5.26-27.08-13.4    c1.83,16.7,12.57,17.31,13.3,36C316.037,342.081,304.047,342.541,304.817,362.322z"/>
		<path style="fill:#F95C5C;" d="M287.043,334.354c0,2.135-0.416,4.196-1.206,6.149c-8.925-7.366-22.152-6.875-30.49,1.473    c-8.348-8.349-21.576-8.84-30.49-1.473c-0.79-1.953-1.206-4.014-1.206-6.149c0-12.395,14.188-39.479,31.696-39.479    C272.855,294.874,287.043,321.959,287.043,334.354z"/>
	</g>
	<g>
		<path d="M220.158,385.706c-2.929,2.929-2.929,7.678,0,10.606c2.929,2.929,7.678,2.929,10.606,0c13.27-13.27,34.862-13.27,48.131,0    c1.464,1.464,3.384,2.197,5.303,2.197s3.839-0.732,5.303-2.197c2.929-2.929,2.929-7.678,0-10.606    C270.385,366.587,239.277,366.587,220.158,385.706z"/>
		<path d="M292.763,336.673c-0.669-0.669-1.392-1.326-2.152-1.954c-10.277-8.483-24.454-9.13-35.267-2.294    c-10.821-6.838-24.998-6.188-35.267,2.298c-0.755,0.625-1.478,1.281-2.147,1.95c-2.929,2.929-2.929,7.678,0,10.606    c2.929,2.929,7.678,2.929,10.606,0c0.336-0.336,0.706-0.671,1.098-0.995c6.061-5.008,14.834-4.58,20.409,0.995    c1.406,1.407,3.314,2.197,5.303,2.197c0.001,0,0.001,0,0.002,0c1.99,0,3.898-0.792,5.304-2.2    c5.567-5.572,14.341-5.998,20.405-0.993c0.393,0.325,0.762,0.66,1.099,0.996c2.929,2.929,7.678,2.929,10.606,0    C295.692,344.351,295.692,339.602,292.763,336.673z"/>
		<path d="M493.788,239.282c-2.318-3.431-6.98-4.334-10.413-2.016c-3.432,2.319-4.334,6.981-2.016,10.413    c5.655,8.371,8.645,18.154,8.645,28.292c0,27.912-22.708,50.62-50.62,50.62c-0.073,0-0.144-0.003-0.216-0.004    c0.335-4.527,0.515-9.091,0.515-13.69v-42.071c5.962-0.453,15.186,0.534,19.252,9.885c1.228,2.825,3.986,4.511,6.882,4.511    c0.998,0,2.013-0.201,2.987-0.624c3.798-1.651,5.539-6.07,3.887-9.869c-6.852-15.758-21.588-19.396-33.008-18.904v-30.447    c8.208,0.046,16.028,1.985,23.242,5.781c1.114,0.586,2.308,0.864,3.486,0.864c2.696,0,5.301-1.458,6.644-4.009    c1.929-3.666,0.521-8.201-3.145-10.129c-9.257-4.871-19.702-7.463-30.227-7.511v-18.252c0-49.364-19.228-95.786-54.143-130.715    c-26.268-26.268-59.33-43.838-95.608-50.81c-11.474-2.212-23.286-3.333-35.107-3.333C152.9,7.263,69.979,90.189,69.979,192.121    v18.393c-1.448-0.094-2.906-0.145-4.363-0.145C29.435,210.369,0,239.797,0,275.971c0,36.18,29.435,65.615,65.616,65.615    c2.19,0,4.368-0.113,6.523-0.325c2.3,14.961,6.429,29.544,12.369,43.588c1.613,3.815,6.013,5.6,9.83,3.986    c3.815-1.614,5.599-6.014,3.986-9.829c-8.854-20.935-13.344-43.177-13.344-66.11v-89.307    c18.785-7.138,36.481-19.337,50.289-34.789c11.466-12.83,19.217-26.869,22.646-40.727c9.934,8.655,26.824,21.239,52.337,33.793    c39.647,19.509,108.776,42.694,214.43,43.877v87.151c0,41.928-15.384,80.885-41.218,110.89c-0.287-0.357-0.572-0.707-0.847-1.044    c-2.399-2.934-4.132-5.054-5.174-10.476c-1.042-5.42-0.22-8.034,0.919-11.653c1.381-4.387,3.099-9.847,1.34-18.993    c-1.763-9.135-5.38-13.565-8.287-17.125c-2.397-2.937-4.13-5.059-5.172-10.48c-1.043-5.421-0.222-8.034,0.915-11.65    c1.378-4.384,3.093-9.841,1.335-18.98c-1.758-9.141-5.378-13.572-8.287-17.133c-2.095-2.564-3.681-4.508-4.744-8.568    c2.783-2.291,5.295-4.943,7.431-7.94c2.404-3.374,1.618-8.057-1.755-10.46c-3.374-2.404-8.057-1.618-10.46,1.755    c-4.981,6.99-13.069,11.163-21.637,11.163c-14.637,0-26.545-11.909-26.545-26.546c0-4.142-3.358-7.5-7.5-7.5s-7.5,3.358-7.5,7.5    c0,8.703,2.695,16.786,7.287,23.468c1.318,8.452,4.703,13.588,7.465,17.769c2.918,4.417,5.223,7.907,5.527,15.701    c0.303,7.795-1.724,11.453-4.291,16.083c-2.952,5.325-6.626,11.953-6.16,23.938c0.466,11.984,4.645,18.307,8.002,23.388    c2.918,4.417,5.224,7.907,5.528,15.703c0.303,7.793-1.726,11.45-4.294,16.079c-2.955,5.326-6.633,11.954-6.166,23.941    c0.467,11.988,4.646,18.311,8.004,23.391c1.692,2.56,3.124,4.755,4.119,7.589c-8.18,2.947-16.67,5.292-25.424,6.975    c-10.541,2.032-21.398,3.062-32.269,3.062c-21.536,0-42.441-4.028-61.829-11.585c0.938-2.127,2.136-3.965,3.508-6.041    c3.358-5.08,7.537-11.402,8.004-23.392c0.467-11.986-3.211-18.615-6.166-23.94c-2.568-4.629-4.597-8.286-4.294-16.079    c0.304-7.796,2.609-11.285,5.528-15.702c3.357-5.081,7.536-11.404,8.002-23.388c0.467-11.985-3.208-18.612-6.16-23.938    c-2.566-4.63-4.594-8.287-4.291-16.082c0.305-7.795,2.609-11.285,5.527-15.702c2.761-4.181,6.146-9.317,7.465-17.769    c4.592-6.683,7.287-14.765,7.287-23.468c0-4.142-3.358-7.5-7.5-7.5s-7.5,3.358-7.5,7.5c0,14.637-11.908,26.546-26.545,26.546    c-8.568,0-16.657-4.173-21.637-11.162c-2.404-3.373-7.087-4.159-10.46-1.756c-3.374,2.404-4.16,7.087-1.756,10.46    c2.136,2.998,4.648,5.65,7.431,7.941c-1.063,4.06-2.649,6.003-4.744,8.567c-2.909,3.561-6.529,7.993-8.287,17.133    c-1.757,9.139-0.042,14.596,1.335,18.98c1.137,3.617,1.958,6.229,0.915,11.65c-1.042,5.422-2.775,7.544-5.173,10.48    c-2.906,3.56-6.523,7.99-8.287,17.129c-1.758,9.141-0.04,14.601,1.341,18.988c1.139,3.619,1.961,6.233,0.919,11.654    c-0.816,4.249-2.059,6.469-3.712,8.643c-4.146-5.039-8.045-10.334-11.645-15.9c-2.249-3.478-6.893-4.473-10.371-2.224    c-3.478,2.25-4.474,6.893-2.224,10.371c34.256,52.964,92.319,84.585,155.317,84.585c11.821,0,23.633-1.121,35.104-3.332    c77.241-14.85,135.629-76.968,147.525-152.853c0.642,0.019,1.285,0.035,1.931,0.035c36.183,0,65.62-29.437,65.62-65.62    C505.003,262.829,501.125,250.142,493.788,239.282z M133.92,432.208c2.908-3.556,6.516-7.987,8.268-17.109    c1.758-9.141,0.04-14.601-1.341-18.988c-1.139-3.619-1.961-6.233-0.92-11.647c1.046-5.421,2.779-7.543,5.177-10.48    c2.908-3.561,6.526-7.993,8.284-17.135c1.757-9.139,0.042-14.595-1.335-18.979c-1.137-3.617-1.958-6.229-0.915-11.65    c1.042-5.419,2.775-7.541,5.173-10.477c2.12-2.596,4.615-5.664,6.495-10.671c4.166,1.383,8.565,2.13,13.054,2.13    c3.436,0,6.774-0.427,9.97-1.217c-1.89,4.009-3.419,9.056-3.691,16.026c-0.467,11.984,3.208,18.612,6.16,23.938    c2.566,4.63,4.594,8.287,4.291,16.082c-0.304,7.795-2.609,11.285-5.528,15.702c-3.357,5.081-7.536,11.404-8.002,23.389    c-0.467,11.986,3.211,18.614,6.166,23.94c2.568,4.629,4.597,8.286,4.294,16.08c-0.304,7.799-2.61,11.288-5.529,15.704    c-1.589,2.404-3.296,4.989-4.729,8.233C162.524,456.771,147.198,445.694,133.92,432.208z M320.911,456.843    c-2.919-4.417-5.226-7.905-5.53-15.703c-0.303-7.794,1.726-11.451,4.294-16.08c2.955-5.326,6.633-11.954,6.166-23.94    c-0.466-11.985-4.645-18.308-8.002-23.388c-2.918-4.417-5.224-7.907-5.528-15.702c-0.303-7.795,1.724-11.453,4.291-16.082    c2.952-5.326,6.626-11.954,6.16-23.939c-0.272-6.969-1.802-12.016-3.692-16.025c3.196,0.79,6.533,1.217,9.97,1.217    c4.489,0,8.888-0.747,13.054-2.131c1.879,5.008,4.375,8.076,6.495,10.671c2.398,2.936,4.131,5.057,5.173,10.477    c1.042,5.421,0.222,8.034-0.915,11.65c-1.378,4.385-3.092,9.841-1.335,18.98c1.758,9.142,5.376,13.573,8.284,17.134    c2.398,2.937,4.131,5.06,5.176,10.475c1.042,5.42,0.22,8.034-0.919,11.653c-1.381,4.387-3.099,9.847-1.341,18.986    c1.758,9.148,5.381,13.579,8.292,17.14c0.744,0.91,1.417,1.748,2.029,2.616c-13.503,13.116-29.218,24.041-46.621,32.13    C324.849,462.813,322.798,459.699,320.911,456.843z M65.616,326.586C37.706,326.586,15,303.88,15,275.971    c0-27.902,22.706-50.602,50.616-50.602c1.465,0,2.921,0.083,4.363,0.205v30.251c-11.42-0.493-26.156,3.145-33.008,18.904    c-1.652,3.799,0.089,8.217,3.887,9.869c0.974,0.423,1.989,0.624,2.987,0.624c2.896,0,5.654-1.687,6.882-4.511    c4.065-9.352,13.243-10.355,19.252-9.888v42.074c0,4.511,0.165,8.996,0.484,13.455C68.864,326.501,67.246,326.586,65.616,326.586z     M217.953,168.937c-33.744-16.438-53.824-34.344-59.712-41.498c-2.002-2.463-5.339-3.4-8.33-2.337    c-2.992,1.062-4.99,3.893-4.99,7.067c0,15.039-7.4,31.601-20.837,46.636c-10.734,12.011-24.6,22.079-39.104,28.562v-15.247    c0-93.66,76.192-169.858,169.845-169.858c10.871,0,21.728,1.03,32.272,3.063c33.325,6.404,63.698,22.548,87.835,46.686    c32.082,32.095,49.75,74.751,49.75,120.11v18.625C322.641,209.581,256.081,187.51,217.953,168.937z"/>
	</g>
</g>















</svg>
